<svg xmlns="http://www.w3.org/2000/svg" xmlns:xlink="http://www.w3.org/1999/xlink" width="21" height="21" viewBox="0 0 21 21">
  <defs>
    <clipPath id="clip-path">
      <rect id="Rectangle_16940" data-name="Rectangle 16940" width="21" height="21" transform="translate(295 12)" fill="#fff" stroke="#707070" stroke-width="1"/>
    </clipPath>
  </defs>
  <g id="Mask_Group_95" data-name="Mask Group 95" transform="translate(-295 -12)" clip-path="url(#clip-path)">
    <g id="_48a337fe5d66b9d277a19ed1f4964d76" data-name="48a337fe5d66b9d277a19ed1f4964d76" transform="translate(293.502 10.5)">
      <path id="Path_11069" data-name="Path 11069" d="M19.987,8.555a5.407,5.407,0,0,1-6.234-3.1A6.155,6.155,0,0,0,6.811,1.973,1.843,1.843,0,0,0,5.245,3.614V12.83a2.074,2.074,0,0,0,1.242-.037c.037-.009.07-.014.112-.023,1.172-.258,2.409-.38,5.475,1.092,3.844,1.842,7.209-1.552,8.513-3.914A4.252,4.252,0,0,0,21,8.25a6.788,6.788,0,0,1-1.008.3Z" fill="#4a98f7"/>
      <path id="Path_11070" data-name="Path 11070" d="M4.125,1.5h-.75A.376.376,0,0,0,3,1.875v20.25a.376.376,0,0,0,.375.375h.75a.376.376,0,0,0,.375-.375V1.875A.376.376,0,0,0,4.125,1.5Z" fill="#4a98f7"/>
    </g>
  </g>
</svg>
