<svg xmlns="http://www.w3.org/2000/svg" xmlns:xlink="http://www.w3.org/1999/xlink" width="349" height="228" viewBox="0 0 349 228">
    <defs>
        <clipPath id="clip-path">
            <rect id="Rectangle_16969" data-name="Rectangle 16969" width="349" height="228" transform="translate(13 129)" fill="#fff" stroke="#707070" stroke-width="1"/>
        </clipPath>
    </defs>
    <g id="Mask_Group_89" data-name="Mask Group 89" transform="translate(-13 -129)" clip-path="url(#clip-path)">
        <g id="c19c5accb2f57ea72d791175fe2b9e7d" transform="translate(-4.778 90.952)">
            <path id="Path_10787" data-name="Path 10787" d="M351.37,125.931V115.168a7.738,7.738,0,0,0-7.738-7.738H316.318a7.738,7.738,0,0,1-7.738-7.738V88.93a7.738,7.738,0,0,1,7.738-7.738h.862a7.738,7.738,0,0,0,7.738-7.738V62.691a7.738,7.738,0,0,0-7.738-7.738H85.318a7.738,7.738,0,0,0-7.738,7.738V73.453a7.738,7.738,0,0,0,7.738,7.738h0a7.738,7.738,0,0,1,7.738,7.738V99.692a7.738,7.738,0,0,1-7.738,7.738H55.394a7.738,7.738,0,0,0-7.738,7.738v10.762a7.738,7.738,0,0,0,7.738,7.738H67.136a7.738,7.738,0,0,1,7.738,7.738v10.762a7.738,7.738,0,0,1-7.738,7.738h-.028a7.738,7.738,0,0,0-7.738,7.738v10.762a7.738,7.738,0,0,0,7.738,7.738h1.7a7.738,7.738,0,0,1,7.738,7.738v10.762a7.738,7.738,0,0,1-7.738,7.738H40.926a7.738,7.738,0,0,0-7.738,7.738v10.762a7.738,7.738,0,0,0,7.738,7.738H321.335a7.738,7.738,0,0,0,7.738-7.738V220.123a7.738,7.738,0,0,0-7.738-7.738h-6.709a7.738,7.738,0,0,1-7.738-7.738V193.885a7.738,7.738,0,0,1,7.738-7.738h15.82a7.738,7.738,0,0,0,7.738-7.738V167.646a7.738,7.738,0,0,0-7.738-7.738h-4.8a7.738,7.738,0,0,1-7.738-7.738V141.407a7.738,7.738,0,0,1,7.738-7.738h17.985a7.738,7.738,0,0,0,7.738-7.738Z" fill="#dfe9ff"/>
            <rect id="Rectangle_16970" data-name="Rectangle 16970" width="43.305" height="20.316" rx="1.183" transform="translate(157.717 154.782) rotate(180)" fill="#a6c2ff"/>
            <rect id="Rectangle_16971" data-name="Rectangle 16971" width="43.305" height="20.316" rx="1.183" transform="translate(179.37 130.804) rotate(180)" fill="#a6c2ff"/>
            <rect id="Rectangle_16972" data-name="Rectangle 16972" width="43.305" height="20.316" rx="1.183" transform="translate(132.403 130.804) rotate(180)" fill="#a6c2ff"/>
            <rect id="Rectangle_16973" data-name="Rectangle 16973" width="43.305" height="20.316" rx="1.183" transform="translate(236.603 169.097)" fill="#a6c2ff"/>
            <rect id="Rectangle_16974" data-name="Rectangle 16974" width="43.305" height="20.316" rx="1.183" transform="translate(214.951 193.075)" fill="#a6c2ff"/>
            <rect id="Rectangle_16975" data-name="Rectangle 16975" width="43.305" height="20.316" rx="1.183" transform="translate(261.918 193.075)" fill="#a6c2ff"/>
            <path id="Path_10788" data-name="Path 10788" d="M200.463,224.127v7.588a11.05,11.05,0,0,1-11.05,11.05H152.291a11.05,11.05,0,0,0-11.05,11.05h0a11.05,11.05,0,0,1-11.05,11.05h-28.67a11.05,11.05,0,0,1-11.05-11.05V234.23a11.05,11.05,0,0,0-11.05-11.05H45.02" fill="none" stroke="#5c7694" stroke-linecap="round" stroke-miterlimit="10" stroke-width="2.367"/>
            <rect id="Rectangle_16976" data-name="Rectangle 16976" width="118.846" height="115.438" rx="18" transform="translate(141.241 38.048)" fill="#6E77F6"/>
            <path id="Path_10789" data-name="Path 10789" d="M226.636,152.99H174.289a2.367,2.367,0,0,0-2.367,2.367v23.381a2.367,2.367,0,0,0,2.367,2.367h7.973a2.366,2.366,0,0,1,2.367,2.367v21.251A2.367,2.367,0,0,0,187,207.088H213.93a2.367,2.367,0,0,0,2.367-2.367V183.471a2.367,2.367,0,0,1,2.367-2.367h7.973A2.367,2.367,0,0,0,229,178.738V155.356A2.367,2.367,0,0,0,226.636,152.99Z" fill="#5c7694"/>
            <rect id="Rectangle_16977" data-name="Rectangle 16977" width="47.496" height="8.519" rx="4.26" transform="translate(176.715 198.569)" fill="#6E77F6"/>
            <path id="Path_10790" data-name="Path 10790" d="M184.382,207.088h32.161v4.419a4.1,4.1,0,0,1-4.1,4.1H188.482a4.1,4.1,0,0,1-4.1-4.1Z" fill="rgba(65,100,172,0.47)"/>
            <path id="Path_10791" data-name="Path 10791" d="M190.806,215.608H210.12v7.381a9.657,9.657,0,0,1-9.657,9.657h0a9.657,9.657,0,0,1-9.657-9.657v-7.381Z" fill="#6E77F6"/>
            <line id="Line_34" data-name="Line 34" y1="25.345" transform="translate(214.07 127.645)" fill="none" stroke="#a6c2ff" stroke-miterlimit="10" stroke-width="5.916"/>
            <line id="Line_35" data-name="Line 35" y1="25.345" transform="translate(186.855 127.645)" fill="none" stroke="#a6c2ff" stroke-miterlimit="10" stroke-width="5.916"/>
            <circle id="Ellipse_298" data-name="Ellipse 298" cx="28.114" cy="28.114" r="28.114" transform="translate(172.55 67.653)" fill="#d8e2e3"/>
            <path id="Path_10792" data-name="Path 10792" d="M179.007,102.9a28.106,28.106,0,0,1,45.42-22.148,28.11,28.11,0,1,0-41.068,37.165A27.972,27.972,0,0,1,179.007,102.9Z" fill="#fff"/>
            <circle id="Ellipse_299" data-name="Ellipse 299" cx="4.899" cy="4.899" r="4.899" transform="translate(182.158 92.784)" fill="#6E77F6"/>
            <circle id="Ellipse_300" data-name="Ellipse 300" cx="4.899" cy="4.899" r="4.899" transform="translate(209.373 92.784)" fill="#6E77F6"/>
            <line id="Line_36" data-name="Line 36" x2="19.111" transform="translate(274.283 77.664)" fill="none" stroke="#b9d4db" stroke-linecap="round" stroke-miterlimit="10" stroke-width="1.775"/>
            <line id="Line_37" data-name="Line 37" x2="19.111" transform="translate(274.283 83.172)" fill="none" stroke="#b9d4db" stroke-linecap="round" stroke-miterlimit="10" stroke-width="1.775"/>
            <line id="Line_38" data-name="Line 38" x2="19.111" transform="translate(274.283 88.681)" fill="none" stroke="#b9d4db" stroke-linecap="round" stroke-miterlimit="10" stroke-width="1.775"/>
            <line id="Line_39" data-name="Line 39" x2="19.111" transform="translate(106.247 72.155)" fill="none" stroke="#b9d4db" stroke-linecap="round" stroke-miterlimit="10" stroke-width="1.775"/>
            <line id="Line_40" data-name="Line 40" x2="19.111" transform="translate(106.247 77.664)" fill="none" stroke="#b9d4db" stroke-linecap="round" stroke-miterlimit="10" stroke-width="1.775"/>
            <line id="Line_41" data-name="Line 41" x2="19.111" transform="translate(106.247 83.172)" fill="none" stroke="#b9d4db" stroke-linecap="round" stroke-miterlimit="10" stroke-width="1.775"/>
            <line id="Line_42" data-name="Line 42" x2="19.111" transform="translate(130.402 183.545)" fill="none" stroke="#b9d4db" stroke-linecap="round" stroke-miterlimit="10" stroke-width="1.775"/>
            <line id="Line_43" data-name="Line 43" x2="19.111" transform="translate(130.402 189.053)" fill="none" stroke="#b9d4db" stroke-linecap="round" stroke-miterlimit="10" stroke-width="1.775"/>
            <line id="Line_44" data-name="Line 44" x2="19.111" transform="translate(130.402 194.561)" fill="none" stroke="#b9d4db" stroke-linecap="round" stroke-miterlimit="10" stroke-width="1.775"/>
        </g>
    </g>
</svg>